<svg aria-hidden="true" style="position: absolute; width: 0; height: 0; overflow: hidden;" version="1.1" xmlns="http://www.w3.org/2000/svg" xmlns:xlink="http://www.w3.org/1999/xlink">
<defs>
<symbol id="icon-user" viewBox="0 0 20 20">
<path stroke-linejoin="round" stroke-linecap="round" stroke-miterlimit="4" stroke-width="2" d="M10 12.5c-2.642 0-4.991 1.276-6.487 3.255-0.322 0.426-0.483 0.639-0.478 0.927 0.004 0.222 0.144 0.503 0.319 0.64 0.227 0.178 0.54 0.178 1.168 0.178h10.955c0.628 0 0.942 0 1.168-0.178 0.175-0.137 0.315-0.418 0.319-0.64 0.005-0.288-0.156-0.501-0.478-0.927-1.496-1.979-3.845-3.255-6.487-3.255z"></path>
<path stroke-linejoin="round" stroke-linecap="round" stroke-miterlimit="4" stroke-width="2" d="M10 10c2.071 0 3.75-1.679 3.75-3.75s-1.679-3.75-3.75-3.75c-2.071 0-3.75 1.679-3.75 3.75s1.679 3.75 3.75 3.75z"></path>
</symbol>
<symbol id="icon-burger" viewBox="0 0 20 20">
<path fill="none" stroke="#fff" style="stroke: var(--color1, #fff)" stroke-linejoin="round" stroke-linecap="round" stroke-miterlimit="4" stroke-width="1.875" d="M2.5 10h15"></path>
<path fill="none" stroke="#fff" style="stroke: var(--color1, #fff)" stroke-linejoin="round" stroke-linecap="round" stroke-miterlimit="4" stroke-width="1.875" d="M2.5 5h15"></path>
<path fill="none" stroke="#fff" style="stroke: var(--color1, #fff)" stroke-linejoin="round" stroke-linecap="round" stroke-miterlimit="4" stroke-width="1.875" d="M2.5 15h15"></path>
</symbol>
<symbol id="icon-logo" viewBox="0 0 20 20">
<path d="M9.995 4.726c-1.599-1.889-4.267-2.397-6.271-0.667s-2.286 4.621-0.712 6.666c1.008 1.31 3.59 3.739 5.315 5.317 0.574 0.524 0.86 0.786 1.204 0.891 0.295 0.090 0.633 0.090 0.928 0 0.343-0.105 0.63-0.367 1.204-0.891 1.726-1.577 4.307-4.006 5.315-5.317 1.574-2.045 1.326-4.955-0.712-6.666s-4.671-1.221-6.271 0.667z"></path>
</symbol>
<symbol id="icon-close" viewBox="0 0 20 20">
<path stroke-linejoin="round" stroke-linecap="round" stroke-miterlimit="4" stroke-width="1.875" d="M15 5l-10 10"></path>
<path stroke-linejoin="round" stroke-linecap="round" stroke-miterlimit="4" stroke-width="1.875" d="M5 5l10 10"></path>
</symbol>
<symbol id="icon-search" viewBox="0 0 20 20">
<path stroke-linejoin="round" stroke-linecap="round" stroke-miterlimit="4" stroke-width="2.2222" d="M9.167 15.833c3.682 0 6.667-2.985 6.667-6.667s-2.985-6.667-6.667-6.667c-3.682 0-6.667 2.985-6.667 6.667s2.985 6.667 6.667 6.667z"></path>
<path stroke-linejoin="round" stroke-linecap="round" stroke-miterlimit="4" stroke-width="2.2222" d="M17.501 17.5l-3.625-3.625"></path>
</symbol>
</defs>
</svg>
