<svg aria-hidden="true" style="position: absolute; width: 0; height: 0; overflow: hidden;" version="1.1" xmlns="http://www.w3.org/2000/svg" xmlns:xlink="http://www.w3.org/1999/xlink">
<defs>
<symbol id="icon-user" viewBox="0 0 20 20">
<path stroke-linejoin="round" stroke-linecap="round" stroke-miterlimit="4" stroke-width="2" d="M10 12.5c-2.642 0-4.991 1.276-6.487 3.255-0.322 0.426-0.483 0.639-0.478 0.927 0.004 0.222 0.144 0.503 0.319 0.64 0.227 0.178 0.54 0.178 1.168 0.178h10.955c0.628 0 0.942 0 1.168-0.178 0.175-0.137 0.315-0.418 0.319-0.64 0.005-0.288-0.156-0.501-0.478-0.927-1.496-1.979-3.845-3.255-6.487-3.255z"></path>
<path stroke-linejoin="round" stroke-linecap="round" stroke-miterlimit="4" stroke-width="2" d="M10 10c2.071 0 3.75-1.679 3.75-3.75s-1.679-3.75-3.75-3.75c-2.071 0-3.75 1.679-3.75 3.75s1.679 3.75 3.75 3.75z"></path>
</symbol>
<symbol id="icon-burger" viewBox="0 0 20 20">
<path  stroke-linejoin="round" stroke-linecap="round" stroke-miterlimit="4" stroke-width="1.875" d="M2.5 10h15"></path>
<path  stroke-linejoin="round" stroke-linecap="round" stroke-miterlimit="4" stroke-width="1.875" d="M2.5 5h15"></path>
<path  stroke-linejoin="round" stroke-linecap="round" stroke-miterlimit="4" stroke-width="1.875" d="M2.5 15h15"></path>
</symbol>
<symbol id="icon-logo" viewBox="0 0 20 20">
<path d="M9.995 4.726c-1.599-1.889-4.267-2.397-6.271-0.667s-2.286 4.621-0.712 6.666c1.008 1.31 3.59 3.739 5.315 5.317 0.574 0.524 0.86 0.786 1.204 0.891 0.295 0.090 0.633 0.090 0.928 0 0.343-0.105 0.63-0.367 1.204-0.891 1.726-1.577 4.307-4.006 5.315-5.317 1.574-2.045 1.326-4.955-0.712-6.666s-4.671-1.221-6.271 0.667z"></path>
</symbol>
<symbol id="icon-close" viewBox="0 0 20 20">
<path stroke-linejoin="round" stroke-linecap="round" stroke-miterlimit="4" stroke-width="1.875" d="M15 5l-10 10"></path>
<path stroke-linejoin="round" stroke-linecap="round" stroke-miterlimit="4" stroke-width="1.875" d="M5 5l10 10"></path>
</symbol>
<symbol id="icon-search" viewBox="0 0 20 20">
<path stroke-linejoin="round" stroke-linecap="round" stroke-miterlimit="4" stroke-width="2.2222" d="M9.167 15.833c3.682 0 6.667-2.985 6.667-6.667s-2.985-6.667-6.667-6.667c-3.682 0-6.667 2.985-6.667 6.667s2.985 6.667 6.667 6.667z"></path>
<path stroke-linejoin="round" stroke-linecap="round" stroke-miterlimit="4" stroke-width="2.2222" d="M17.501 17.5l-3.625-3.625"></path>
</symbol>
<symbol id="icon-arrow-right" viewBox="0 0 20 20">
<path d="M11.167 10.592c0.078-0.077 0.14-0.17 0.182-0.271s0.064-0.211 0.064-0.321-0.022-0.219-0.064-0.321c-0.042-0.102-0.104-0.194-0.182-0.271l-3.825-3.817c-0.078-0.077-0.14-0.17-0.182-0.271s-0.064-0.21-0.064-0.32c0-0.11 0.022-0.219 0.064-0.32s0.104-0.194 0.182-0.271c0.156-0.155 0.367-0.242 0.587-0.242s0.431 0.087 0.587 0.242l3.825 3.825c0.468 0.469 0.731 1.104 0.731 1.767s-0.263 1.298-0.731 1.767l-3.825 3.825c-0.155 0.154-0.365 0.241-0.583 0.242-0.11 0.001-0.218-0.020-0.32-0.062s-0.194-0.103-0.272-0.18c-0.078-0.077-0.14-0.17-0.182-0.271s-0.064-0.211-0.064-0.321 0.022-0.219 0.064-0.321c0.042-0.102 0.104-0.194 0.182-0.271l3.825-3.817z"></path>
</symbol>
<symbol id="icon-arrow-left" viewBox="0 0 20 20">
<path d="M8.834 10.592c-0.078-0.078-0.14-0.17-0.182-0.271s-0.064-0.211-0.064-0.321 0.022-0.219 0.064-0.321c0.042-0.102 0.104-0.194 0.182-0.271l3.825-3.817c0.078-0.077 0.14-0.17 0.182-0.271s0.064-0.21 0.064-0.32-0.022-0.219-0.064-0.32c-0.042-0.102-0.104-0.194-0.182-0.271-0.156-0.155-0.367-0.242-0.588-0.242s-0.431 0.087-0.588 0.242l-3.825 3.825c-0.468 0.469-0.731 1.104-0.731 1.767s0.263 1.298 0.731 1.767l3.825 3.825c0.155 0.154 0.365 0.241 0.583 0.242 0.11 0.001 0.218-0.020 0.32-0.062s0.194-0.103 0.272-0.18c0.078-0.077 0.14-0.17 0.182-0.271s0.064-0.211 0.064-0.321-0.022-0.219-0.064-0.321c-0.042-0.102-0.104-0.194-0.182-0.271l-3.825-3.817z"></path>
</symbol>
<symbol id="icon-eye" viewBox="0 0 20 20">
<path fill="none" stroke="#f6b83d" style="stroke: var(--color1, #f6b83d)" stroke-linejoin="round" stroke-linecap="round" stroke-miterlimit="4" stroke-width="1.8182" d="M0.833 10c0 0 3.333-6.667 9.167-6.667s9.167 6.667 9.167 6.667-3.333 6.667-9.167 6.667c-5.833 0-9.167-6.667-9.167-6.667z"></path>
<path fill="none" stroke="#f6b83d" style="stroke: var(--color1, #f6b83d)" stroke-linejoin="round" stroke-linecap="round" stroke-miterlimit="4" stroke-width="1.8182" d="M10 12.5c1.381 0 2.5-1.119 2.5-2.5s-1.119-2.5-2.5-2.5c-1.381 0-2.5 1.119-2.5 2.5s1.119 2.5 2.5 2.5z"></path>
</symbol>
<symbol id="icon-eye-off" viewBox="0 0 20 20">
<path fill="none" stroke="#f6b83d" style="stroke: var(--color1, #f6b83d)" stroke-linejoin="round" stroke-linecap="round" stroke-miterlimit="4" stroke-width="1.8182" d="M14.951 14.95c-1.425 1.086-3.159 1.687-4.95 1.717-5.833 0-9.167-6.667-9.167-6.667 1.037-1.932 2.474-3.619 4.217-4.95M8.251 3.533c0.574-0.134 1.161-0.201 1.75-0.2 5.833 0 9.167 6.667 9.167 6.667-0.506 0.946-1.109 1.837-1.8 2.658M11.768 11.767c-0.229 0.246-0.505 0.443-0.812 0.579s-0.638 0.21-0.973 0.216c-0.336 0.006-0.669-0.056-0.98-0.182s-0.594-0.313-0.831-0.55c-0.237-0.237-0.425-0.52-0.55-0.831s-0.187-0.645-0.182-0.98c0.006-0.336 0.079-0.667 0.216-0.973s0.334-0.583 0.579-0.812"></path>
<path fill="none" stroke="#f6b83d" style="stroke: var(--color1, #f6b83d)" stroke-linejoin="round" stroke-linecap="round" stroke-miterlimit="4" stroke-width="1.8182" d="M0.835 0.833l18.333 18.333"></path>
</symbol>
<symbol id="icon-cross" viewBox="0 0 20 20">
<path fill="none" stroke="#ef2447" style="stroke: var(--color1, #ef2447)" stroke-linejoin="round" stroke-linecap="round" stroke-miterlimit="4" stroke-width="1.8182" d="M15.833 4.167l-11.667 11.667M4.166 4.167l11.667 11.667"></path>
</symbol>
<symbol id="icon-check" viewBox="0 0 20 20">
<path fill="none" stroke="#08aa83" style="stroke: var(--color2, #08aa83)" stroke-linejoin="round" stroke-linecap="round" stroke-miterlimit="4" stroke-width="1.3636" d="M16.667 5.833l-9.167 9.167-4.167-4.167"></path>
</symbol>
</defs>
</svg>
