<svg aria-hidden="true" style="position: absolute; width: 0; height: 0; overflow: hidden;" version="1.1" xmlns="http://www.w3.org/2000/svg" xmlns:xlink="http://www.w3.org/1999/xlink">
    <defs>
        <symbol id="icon-user" viewBox="0 0 20 20">
            <path
                stroke-linejoin="round"
                stroke-linecap="round"
                stroke-miterlimit="4"
                stroke-width="2"
                d="M10 12.5c-2.642 0-4.991 1.276-6.487 3.255-0.322 0.426-0.483 0.639-0.478 0.927 0.004 0.222 0.144 0.503 0.319 0.64 0.227 0.178 0.54 0.178 1.168 0.178h10.955c0.628 0 0.942 0 1.168-0.178 0.175-0.137 0.315-0.418 0.319-0.64 0.005-0.288-0.156-0.501-0.478-0.927-1.496-1.979-3.845-3.255-6.487-3.255z"
            ></path>
            <path stroke-linejoin="round" stroke-linecap="round" stroke-miterlimit="4" stroke-width="2" d="M10 10c2.071 0 3.75-1.679 3.75-3.75s-1.679-3.75-3.75-3.75c-2.071 0-3.75 1.679-3.75 3.75s1.679 3.75 3.75 3.75z"></path>
        </symbol>
        <symbol id="icon-burger" viewBox="0 0 20 20">
            <path stroke-linejoin="round" stroke-linecap="round" stroke-miterlimit="4" stroke-width="1.875" d="M2.5 10h15"></path>
            <path stroke-linejoin="round" stroke-linecap="round" stroke-miterlimit="4" stroke-width="1.875" d="M2.5 5h15"></path>
            <path stroke-linejoin="round" stroke-linecap="round" stroke-miterlimit="4" stroke-width="1.875" d="M2.5 15h15"></path>
        </symbol>
        <symbol id="icon-logo" viewBox="0 0 20 20">
            <path
                d="M9.995 4.726c-1.599-1.889-4.267-2.397-6.271-0.667s-2.286 4.621-0.712 6.666c1.008 1.31 3.59 3.739 5.315 5.317 0.574 0.524 0.86 0.786 1.204 0.891 0.295 0.090 0.633 0.090 0.928 0 0.343-0.105 0.63-0.367 1.204-0.891 1.726-1.577 4.307-4.006 5.315-5.317 1.574-2.045 1.326-4.955-0.712-6.666s-4.671-1.221-6.271 0.667z"
            ></path>
        </symbol>
        <symbol id="icon-close" viewBox="0 0 20 20">
            <path stroke-linejoin="round" stroke-linecap="round" stroke-miterlimit="4" stroke-width="1.875" d="M15 5l-10 10"></path>
            <path stroke-linejoin="round" stroke-linecap="round" stroke-miterlimit="4" stroke-width="1.875" d="M5 5l10 10"></path>
        </symbol>
        <symbol id="icon-search" viewBox="0 0 20 20">
            <path
                stroke-linejoin="round"
                stroke-linecap="round"
                stroke-miterlimit="4"
                stroke-width="2.2222"
                d="M9.167 15.833c3.682 0 6.667-2.985 6.667-6.667s-2.985-6.667-6.667-6.667c-3.682 0-6.667 2.985-6.667 6.667s2.985 6.667 6.667 6.667z"
            ></path>
            <path stroke-linejoin="round" stroke-linecap="round" stroke-miterlimit="4" stroke-width="2.2222" d="M17.501 17.5l-3.625-3.625"></path>
        </symbol>
        <symbol id="icon-arrow-right" viewBox="0 0 20 20">
            <path
                d="M11.167 10.592c0.078-0.077 0.14-0.17 0.182-0.271s0.064-0.211 0.064-0.321-0.022-0.219-0.064-0.321c-0.042-0.102-0.104-0.194-0.182-0.271l-3.825-3.817c-0.078-0.077-0.14-0.17-0.182-0.271s-0.064-0.21-0.064-0.32c0-0.11 0.022-0.219 0.064-0.32s0.104-0.194 0.182-0.271c0.156-0.155 0.367-0.242 0.587-0.242s0.431 0.087 0.587 0.242l3.825 3.825c0.468 0.469 0.731 1.104 0.731 1.767s-0.263 1.298-0.731 1.767l-3.825 3.825c-0.155 0.154-0.365 0.241-0.583 0.242-0.11 0.001-0.218-0.020-0.32-0.062s-0.194-0.103-0.272-0.18c-0.078-0.077-0.14-0.17-0.182-0.271s-0.064-0.211-0.064-0.321 0.022-0.219 0.064-0.321c0.042-0.102 0.104-0.194 0.182-0.271l3.825-3.817z"
            ></path>
        </symbol>
        <symbol id="icon-arrow-left" viewBox="0 0 20 20">
            <path
                d="M8.834 10.592c-0.078-0.078-0.14-0.17-0.182-0.271s-0.064-0.211-0.064-0.321 0.022-0.219 0.064-0.321c0.042-0.102 0.104-0.194 0.182-0.271l3.825-3.817c0.078-0.077 0.14-0.17 0.182-0.271s0.064-0.21 0.064-0.32-0.022-0.219-0.064-0.32c-0.042-0.102-0.104-0.194-0.182-0.271-0.156-0.155-0.367-0.242-0.588-0.242s-0.431 0.087-0.588 0.242l-3.825 3.825c-0.468 0.469-0.731 1.104-0.731 1.767s0.263 1.298 0.731 1.767l3.825 3.825c0.155 0.154 0.365 0.241 0.583 0.242 0.11 0.001 0.218-0.020 0.32-0.062s0.194-0.103 0.272-0.18c0.078-0.077 0.14-0.17 0.182-0.271s0.064-0.211 0.064-0.321-0.022-0.219-0.064-0.321c-0.042-0.102-0.104-0.194-0.182-0.271l-3.825-3.817z"
            ></path>
        </symbol>
        <symbol id="icon-eye" viewBox="0 0 20 20">
            <path
                fill="none"
                stroke="#f6b83d"
                style="stroke: var(--color1, #f6b83d);"
                stroke-linejoin="round"
                stroke-linecap="round"
                stroke-miterlimit="4"
                stroke-width="1.8182"
                d="M0.833 10c0 0 3.333-6.667 9.167-6.667s9.167 6.667 9.167 6.667-3.333 6.667-9.167 6.667c-5.833 0-9.167-6.667-9.167-6.667z"
            ></path>
            <path
                fill="none"
                stroke="#f6b83d"
                style="stroke: var(--color1, #f6b83d);"
                stroke-linejoin="round"
                stroke-linecap="round"
                stroke-miterlimit="4"
                stroke-width="1.8182"
                d="M10 12.5c1.381 0 2.5-1.119 2.5-2.5s-1.119-2.5-2.5-2.5c-1.381 0-2.5 1.119-2.5 2.5s1.119 2.5 2.5 2.5z"
            ></path>
        </symbol>
        <symbol id="icon-eye-off" viewBox="0 0 20 20">
            <path
                fill="none"
                stroke="#f6b83d"
                style="stroke: var(--color1, #f6b83d);"
                stroke-linejoin="round"
                stroke-linecap="round"
                stroke-miterlimit="4"
                stroke-width="1.8182"
                d="M14.951 14.95c-1.425 1.086-3.159 1.687-4.95 1.717-5.833 0-9.167-6.667-9.167-6.667 1.037-1.932 2.474-3.619 4.217-4.95M8.251 3.533c0.574-0.134 1.161-0.201 1.75-0.2 5.833 0 9.167 6.667 9.167 6.667-0.506 0.946-1.109 1.837-1.8 2.658M11.768 11.767c-0.229 0.246-0.505 0.443-0.812 0.579s-0.638 0.21-0.973 0.216c-0.336 0.006-0.669-0.056-0.98-0.182s-0.594-0.313-0.831-0.55c-0.237-0.237-0.425-0.52-0.55-0.831s-0.187-0.645-0.182-0.98c0.006-0.336 0.079-0.667 0.216-0.973s0.334-0.583 0.579-0.812"
            ></path>
            <path fill="none" stroke="#f6b83d" style="stroke: var(--color1, #f6b83d);" stroke-linejoin="round" stroke-linecap="round" stroke-miterlimit="4" stroke-width="1.8182" d="M0.835 0.833l18.333 18.333"></path>
        </symbol>
        <symbol id="icon-cross" viewBox="0 0 20 20">
            <path
                fill="none"
                stroke="#ef2447"
                style="stroke: var(--color1, #ef2447);"
                stroke-linejoin="round"
                stroke-linecap="round"
                stroke-miterlimit="4"
                stroke-width="1.8182"
                d="M15.833 4.167l-11.667 11.667M4.166 4.167l11.667 11.667"
            ></path>
        </symbol>
          <symbol id="icon-cross-white" viewBox="0 0 20 20">
            <path
                fill="none"
                stroke="#fff"
                style="stroke: var(--color1, #fff);"
                stroke-linejoin="round"
                stroke-linecap="round"
                stroke-miterlimit="4"
                stroke-width="1.8182"
                d="M15.833 4.167l-11.667 11.667M4.166 4.167l11.667 11.667"
            ></path>
        </symbol>
        <symbol id="icon-check" viewBox="0 0 20 20">
            <path fill="none" stroke="#08aa83" style="stroke: var(--color2, #08aa83);" stroke-linejoin="round" stroke-linecap="round" stroke-miterlimit="4" stroke-width="1.3636" d="M16.667 5.833l-9.167 9.167-4.167-4.167"></path>
        </symbol>
        <symbol id="icon-like" viewBox="0 0 35 32">
            <path
                stroke-linejoin="round"
                stroke-linecap="round"
                stroke-width="1.454"
                d="M31.384 4.355a8.672 8.672 0 0 0-6.13-2.54 8.664 8.664 0 0 0-6.13 2.54l-1.67 1.67-1.67-1.67a8.669 8.669 0 0 0-12.26 12.26l13.93 13.93 13.93-13.93a8.672 8.672 0 0 0 2.54-6.13 8.664 8.664 0 0 0-2.54-6.13z"
            />
        </symbol>
        <symbol id="icon-star" viewBox="0 0 32 32">
            <path
                stroke-width="2.4"
                d="M12.4 9.394 16 2.572l3.6 6.822a2.2 2.2 0 0 0 1.571 1.141l7.601 1.315-5.376 5.532a2.2 2.2 0 0 0-.6 1.846l1.098 7.635-6.922-3.404a2.199 2.199 0 0 0-1.941 0l-6.922 3.404 1.098-7.635a2.2 2.2 0 0 0-.6-1.846L3.231 11.85l7.601-1.315a2.202 2.202 0 0 0 1.571-1.141zm16.635 2.185zM7.767 27.031z"
            />
        </symbol>
        <symbol id="icon-chevron-down" viewBox="0 0 32 32">
            <path stroke-linejoin="round" stroke-linecap="round" stroke-miterlimit="4" stroke-width="3.2" d="M8 12l8 8 8-8"></path>
        </symbol>
        <symbol id="icon-chevron-up" viewBox="0 0 32 32">
            <path stroke-linejoin="round" stroke-linecap="round" stroke-width="3.2" d="m8 20 8-8 8 8" />
        </symbol>
        <symbol id="icon-chevron-left" viewBox="0 0 18 32">
            <path
                d="M5.943 17.623A2.279 2.279 0 0 1 5.267 16a2.284 2.284 0 0 1 .676-1.623L16.434 3.908a2.279 2.279 0 0 0 .676-1.623 2.284 2.284 0 0 0-.676-1.623 2.285 2.285 0 0 0-3.222 0L2.721 11.153a6.859 6.859 0 0 0 0 9.692l10.491 10.491a2.289 2.289 0 0 0 3.898-1.623 2.287 2.287 0 0 0-.676-1.623L5.943 17.621z"
            />
        </symbol>
        <symbol id="icon-chevron-right" viewBox="0 0 18 32">
            <path
                d="M12.343 17.623A2.279 2.279 0 0 0 13.019 16a2.284 2.284 0 0 0-.676-1.623L1.852 3.908a2.279 2.279 0 0 1-.676-1.623A2.284 2.284 0 0 1 1.852.662a2.285 2.285 0 0 1 3.222 0l10.491 10.491a6.859 6.859 0 0 1 0 9.692L5.074 31.336a2.289 2.289 0 0 1-3.898-1.623 2.287 2.287 0 0 1 .676-1.623l10.491-10.469z"
            />
        </symbol>
        <symbol id="icon-chevron-down" viewBox="0 0 32 32">
            <path stroke-linejoin="round" stroke-linecap="round" stroke-miterlimit="4" stroke-width="3.2" d="M8 12l8 8 8-8"></path>
        </symbol>
        <symbol id="icon-chevron-up" viewBox="0 0 32 32">
            <path stroke-linejoin="round" stroke-linecap="round" stroke-width="3.2" d="m8 20 8-8 8 8" />
        </symbol>
        <symbol id="icon-chevron-left" viewBox="0 0 18 32">
            <path
                d="M5.943 17.623A2.279 2.279 0 0 1 5.267 16a2.284 2.284 0 0 1 .676-1.623L16.434 3.908a2.279 2.279 0 0 0 .676-1.623 2.284 2.284 0 0 0-.676-1.623 2.285 2.285 0 0 0-3.222 0L2.721 11.153a6.859 6.859 0 0 0 0 9.692l10.491 10.491a2.289 2.289 0 0 0 3.898-1.623 2.287 2.287 0 0 0-.676-1.623L5.943 17.621z"
            />
        </symbol>
        <symbol id="icon-chevron-right" viewBox="0 0 18 32">
            <path
                d="M12.343 17.623A2.279 2.279 0 0 0 13.019 16a2.284 2.284 0 0 0-.676-1.623L1.852 3.908a2.279 2.279 0 0 1-.676-1.623A2.284 2.284 0 0 1 1.852.662a2.285 2.285 0 0 1 3.222 0l10.491 10.491a6.859 6.859 0 0 1 0 9.692L5.074 31.336a2.289 2.289 0 0 1-3.898-1.623 2.287 2.287 0 0 1 .676-1.623l10.491-10.469z"
            />
        </symbol>
        <symbol id="icon-close" viewBox="0 0 32 32">
            <path stroke-linejoin="round" stroke-linecap="round" stroke-width="2.667" d="M24 8 8 24M8 8l16 16" />
        </symbol>
        <symbol id="icon-rectangle" viewBox="0 0 28 32">
            <path
                d="M.093 6.19C-.39 2.394 3.064-.717 6.789.159L24.017 4.21a5.484 5.484 0 0 1 4.035 6.784l-2.176 7.961a11.93 11.93 0 0 0-.422 3.144v6.182c0 3.89-3.937 6.543-7.543 5.083L3.605 27.571A5.484 5.484 0 0 1 .19 22.149l.549-8.856c.056-.909.027-1.822-.088-2.725L.093 6.19z"
            />
        </symbol>
        <symbol id="icon-male" viewBox="0 0 32 32">
            <path stroke-linejoin="round" stroke-linecap="round" stroke-width="2" d="M16 14.667a6.667 6.667 0 1 0 0 13.334 6.667 6.667 0 0 0 0-13.334zm0 0V4m0 0 5.333 5.333M16 4l-5.333 5.333" />
        </symbol>
        <symbol id="icon-female" viewBox="0 0 32 32">
            <path stroke-linejoin="round" stroke-linecap="round" stroke-width="2" d="M16 17.333a6.667 6.667 0 1 0 0-13.334 6.667 6.667 0 0 0 0 13.334zm0 0V28m-4-4h8" />
        </symbol>
        <symbol id="icon-multiple" viewBox="0 0 32 32">
            <path
                d="M11.694 10.327a4.665 4.665 0 1 0 2.912 3.635.654.654 0 0 1 .313-.672.653.653 0 0 1 .504-.078.67.67 0 0 1 .501.546 5.993 5.993 0 0 1-3.514 6.403 5.997 5.997 0 1 1-.232-11.077.665.665 0 0 1 .433.609.669.669 0 0 1-.403.628.665.665 0 0 1-.515.006z"
            />
            <path d="M9.331 26v-5.331a.665.665 0 1 1 1.332 0V26a.665.665 0 1 1-1.332 0z" />
            <path
                d="M7.332 22.668a.665.665 0 0 1 .666-.666h3.998a.665.665 0 1 1 0 1.332H7.998a.665.665 0 0 1-.666-.666zm11.93-12.486a4.665 4.665 0 0 0-5.9 5.04.672.672 0 0 1-.137.493.66.66 0 0 1-.446.251.648.648 0 0 1-.492-.139.673.673 0 0 1-.249-.448 5.997 5.997 0 1 1 3.582 4.801.655.655 0 0 1-.355-.365.668.668 0 0 1 .883-.859 4.665 4.665 0 1 0 3.115-8.773z"
            />
            <path d="M21.855 11.477a.665.665 0 0 1 0-.942l4.998-4.998a.658.658 0 0 1 .473-.203.673.673 0 0 1 .672.673.669.669 0 0 1-.203.473l-4.998 4.998a.665.665 0 0 1-.942 0z" />
            <path d="M27.273 10.007a.669.669 0 0 1-.657-.675l.033-2.648-2.648.033a.67.67 0 0 1-.675-.658.67.67 0 0 1 .658-.675L28 5.333l-.051 4.016a.669.669 0 0 1-.675.657z" />
        </symbol>
        <symbol id="icon-calendar" viewBox="0 0 32 32">
            <path
                stroke-linejoin="round"
                stroke-linecap="round"
                stroke-width="2.88"
                d="M25.333 5.333H6.666A2.667 2.667 0 0 0 3.999 8v18.667a2.667 2.667 0 0 0 2.667 2.667h18.667A2.667 2.667 0 0 0 28 26.667V8a2.667 2.667 0 0 0-2.667-2.667zm-4-2.666V8M10.667 2.667V8M4 13.333h24"
            />
        </symbol>
        <symbol id="icon-paw-print" viewBox="0 0 32 32">
            <path
                d="M12.5 5c-1.07 0-2.002.608-2.594 1.438S9 8.34 9 9.5s.314 2.233.906 3.063S11.43 14 12.5 14s2.002-.608 2.594-1.438c.592-.83.906-1.902.906-3.062s-.314-2.233-.906-3.063C14.502 5.607 13.57 5 12.5 5zM16 9.5c0 1.16.314 2.233.906 3.063S18.431 14 19.5 14c1.07 0 2.002-.608 2.594-1.438S23 10.66 23 9.5s-.314-2.233-.906-3.063C21.502 5.607 20.57 5 19.5 5s-2.002.608-2.594 1.438C16.314 7.268 16 8.34 16 9.5zM12.5 7c.312 0 .656.156.97.594.31.437.53 1.133.53 1.906s-.22 1.47-.53 1.906c-.314.438-.658.594-.97.594s-.656-.156-.97-.594c-.31-.437-.53-1.133-.53-1.906s.22-1.47.53-1.906c.314-.438.658-.594.97-.594zm7 0c.312 0 .656.156.97.594.31.437.53 1.133.53 1.906s-.22 1.47-.53 1.906c-.314.438-.658.594-.97.594s-.656-.156-.97-.594c-.31-.437-.53-1.133-.53-1.906s.22-1.47.53-1.906c.314-.438.658-.594.97-.594zm-12 5c-1.07 0-2.002.608-2.594 1.438S4 15.34 4 16.5s.314 2.233.906 3.063C5.498 20.393 6.43 21 7.5 21s2.002-.608 2.594-1.438c.592-.83.906-1.902.906-3.062s-.314-2.233-.906-3.063C9.502 12.607 8.57 12 7.5 12zm17 0c-1.07 0-2.002.608-2.594 1.438S21 15.34 21 16.5s.314 2.233.906 3.063C22.498 20.393 23.43 21 24.5 21s2.002-.608 2.594-1.438c.592-.83.906-1.902.906-3.062s-.314-2.233-.906-3.063C26.502 12.607 25.57 12 24.5 12zm-17 2c.312 0 .656.156.97.594.31.437.53 1.133.53 1.906s-.22 1.47-.53 1.906c-.314.438-.658.594-.97.594s-.656-.156-.97-.594C6.22 17.97 6 17.273 6 16.5s.22-1.47.53-1.906c.314-.438.658-.594.97-.594zm17 0c.312 0 .656.156.97.594.31.437.53 1.133.53 1.906s-.22 1.47-.53 1.906c-.314.438-.658.594-.97.594s-.656-.156-.97-.594c-.31-.437-.53-1.133-.53-1.906s.22-1.47.53-1.906c.314-.438.658-.594.97-.594zM16 16c-1.333 0-2.263.865-2.72 1.625-.454.76-.734 1.392-1 1.656-.153.157-1.118.52-2.124 1.033-.503.257-1.01.6-1.437 1.125-.43.525-.72 1.25-.72 2.063 0 1.92 1.58 3.5 3.5 3.5.866 0 1.77-.28 2.655-.53C15.043 26.216 16 26 16 26s.957.216 1.844.47c.886.25 1.79.53 2.656.53 1.92 0 3.5-1.58 3.5-3.5 0-.794-.293-1.52-.72-2.03-.425-.513-.937-.83-1.436-1.095-1-.53-1.983-.95-2.125-1.094-.24-.237-.51-.89-.97-1.654C18.29 16.86 17.34 16 16 16zm0 2c.66 0 .733.16 1.03.656.3.495.524 1.336 1.25 2.063.825.82 1.867 1 2.626 1.404.38.202.67.417.844.625.173.207.25.396.25.75 0 .84-.66 1.5-1.5 1.5-.29 0-1.224-.22-2.094-.47-.87-.247-1.59-.53-2.406-.53s-1.536.283-2.406.53c-.87.25-1.804.47-2.094.47-.84 0-1.5-.66-1.5-1.5 0-.403.084-.61.25-.814.166-.203.472-.404.844-.593.744-.38 1.78-.53 2.625-1.375.733-.737.953-1.605 1.25-2.095.292-.49.362-.625 1.03-.625L16 18z"
            />
        </symbol>
        <symbol id="icon-trash" viewBox="0 0 32 32">
            <path
                stroke-linejoin="round"
                stroke-linecap="round"
                stroke-width="2.667"
                d="M4 8h24m-2.667 0v18.667a2.668 2.668 0 0 1-2.667 2.667H9.333a2.668 2.668 0 0 1-2.667-2.667V8m4.001 0V5.333a2.668 2.668 0 0 1 2.667-2.667h5.333a2.668 2.668 0 0 1 2.667 2.667V8m-8.001 6.667v8m5.334-8v8"
            />
        </symbol>
    </defs>
</svg>